<svg xmlns="http://www.w3.org/2000/svg" width="21" height="21" viewBox="0 0 21 21" fill="none">
  <path d="M18.375 7.87504H17.1325L13.8845 2.19104L12.3655 3.05904L15.1174 7.87504H5.88262L8.63537 3.05904L7.1155 2.19104L3.8675 7.87504H2.625C2.49045 7.87501 2.3577 7.90601 2.23708 7.96564C2.11647 8.02526 2.01122 8.11189 1.92954 8.21881C1.84785 8.32572 1.79192 8.45003 1.76609 8.58208C1.74026 8.71413 1.74523 8.85035 1.78062 8.98017L4.22975 17.9612C4.33156 18.3311 4.55184 18.6575 4.85686 18.8903C5.16187 19.1231 5.5348 19.2494 5.9185 19.25H15.0824C15.8681 19.25 16.5629 18.7207 16.7711 17.9594L19.2202 8.97929C19.2559 8.84944 19.261 8.71312 19.2352 8.58097C19.2094 8.44882 19.1534 8.32442 19.0715 8.2175C18.9897 8.11059 18.8842 8.02404 18.7634 7.96463C18.6426 7.90522 18.5096 7.87456 18.375 7.87504ZM15.0815 17.5H5.9185L3.77125 9.62504H17.2287L15.0815 17.5Z" fill="#000000"/>
  <path d="M7.875 11.375H9.625V15.75H7.875V11.375ZM11.375 11.375H13.125V15.75H11.375V11.375Z" fill="#000000"/>
</svg>