<svg xmlns="http://www.w3.org/2000/svg" width="20" height="19" viewBox="0 0 20 19" fill="none">
  <path d="M17.125 7.12497H16.0009L13.0622 1.9823L11.6879 2.76763L14.1776 7.12497H5.82239L8.31298 2.76763L6.93785 1.9823L3.99919 7.12497H2.87502C2.75328 7.12494 2.63318 7.15299 2.52405 7.20694C2.41492 7.26088 2.3197 7.33926 2.24579 7.43599C2.17188 7.53273 2.12128 7.6452 2.09791 7.76467C2.07455 7.88414 2.07904 8.00739 2.11106 8.12484L4.32694 16.2505C4.41905 16.5852 4.61836 16.8805 4.89432 17.0911C5.17029 17.3018 5.5077 17.4161 5.85485 17.4166H14.146C14.8569 17.4166 15.4855 16.9377 15.6739 16.2489L17.8898 8.12405C17.922 8.00657 17.9266 7.88323 17.9033 7.76366C17.8799 7.6441 17.8293 7.53155 17.7552 7.43481C17.6812 7.33808 17.5858 7.25978 17.4764 7.20603C17.3671 7.15228 17.2468 7.12453 17.125 7.12497ZM14.1452 15.8333H5.85485L3.9121 8.7083H16.0879L14.1452 15.8333Z" fill="black"/>
  <path d="M7.625 10.2916H9.20833V14.25H7.625V10.2916ZM10.7917 10.2916H12.375V14.25H10.7917V10.2916Z" fill="black"/>
</svg>