<svg width="30" height="30" viewBox="0 0 30 30" fill="none" xmlns="http://www.w3.org/2000/svg">
	<rect width="30" height="30" rx="5" fill="url(#paint0_linear_0_1)" />
	<path fill-rule="evenodd" clip-rule="evenodd"
		d="M23.6265 9.37393C23.8657 9.61316 24 9.93758 24 10.2758C24 10.6141 23.8657 10.9385 23.6265 11.1778L14.0647 20.7395C13.9384 20.8659 13.7884 20.9662 13.6232 21.0346C13.4581 21.103 13.2812 21.1382 13.1024 21.1382C12.9237 21.1382 12.7467 21.103 12.5816 21.0346C12.4165 20.9662 12.2665 20.8659 12.1401 20.7395L7.38945 15.9897C7.26761 15.872 7.17043 15.7312 7.10357 15.5756C7.03671 15.42 7.00152 15.2526 7.00005 15.0832C6.99858 14.9138 7.03085 14.7458 7.095 14.589C7.15914 14.4323 7.25386 14.2898 7.37364 14.17C7.49342 14.0503 7.63585 13.9555 7.79263 13.8914C7.94941 13.8273 8.11739 13.795 8.28678 13.7964C8.45617 13.7979 8.62356 13.8331 8.7792 13.9C8.93484 13.9668 9.07561 14.064 9.19329 14.1859L13.102 18.0946L21.8218 9.37393C21.9403 9.25539 22.0809 9.16135 22.2358 9.09718C22.3906 9.03302 22.5566 9 22.7242 9C22.8917 9 23.0577 9.03302 23.2125 9.09718C23.3674 9.16135 23.508 9.25539 23.6265 9.37393Z"
		fill="black" />
	<defs>
		<linearGradient id="paint0_linear_0_1" x1="30" y1="0" x2="0" y2="0"
			gradientUnits="userSpaceOnUse">
			<stop stop-color="#D9D9D9" />
			<stop offset="1" stop-color="#D9D9D9" />
		</linearGradient>
	</defs>
</svg>
	