<svg xmlns="http://www.w3.org/2000/svg" width="21" height="21" viewBox="0 0 21 21" fill="none">
  <path d="M10.5 17.7188H3.9375C3.76345 17.7188 3.59653 17.6496 3.47346 17.5265C3.35039 17.4035 3.28125 17.2365 3.28125 17.0625V10.5C3.28125 10.326 3.35039 10.159 3.47346 10.036C3.59653 9.91289 3.76345 9.84375 3.9375 9.84375H10.5M10.5 17.7188V9.84375M10.5 17.7188H17.0625C17.2365 17.7188 17.4035 17.6496 17.5265 17.5265C17.6496 17.4035 17.7188 17.2365 17.7188 17.0625V10.5C17.7188 10.326 17.6496 10.159 17.5265 10.036C17.4035 9.91289 17.2365 9.84375 17.0625 9.84375H10.5M13.7812 10.5V13.125M11.1562 3.9375V6.5625M7.21875 10.5V13.125M5.90625 3.9375V9.84375H15.0938V3.9375C15.0938 3.76345 15.0246 3.59653 14.9015 3.47346C14.7785 3.35039 14.6115 3.28125 14.4375 3.28125H6.5625C6.38845 3.28125 6.22153 3.35039 6.09846 3.47346C5.97539 3.59653 5.90625 3.76345 5.90625 3.9375Z" stroke="#1447e6" stroke-width="1.5"/>
</svg>