<svg xmlns="http://www.w3.org/2000/svg" width="14" height="24" viewBox="0 0 14 24" fill="none">
  <path d="M4.59277 3.99805C5.83124 4.31313 6.74212 5.43957 6.74219 6.77441V17.4199C6.74219 17.668 6.64413 17.9066 6.46875 18.082C6.29329 18.2575 6.05477 18.3555 5.80664 18.3555H1.93555C1.68756 18.3555 1.44984 18.2573 1.27441 18.082C1.09896 17.9066 1 17.6681 1 17.4199V6.77441C1.00007 5.43962 1.91103 4.31319 3.14941 3.99805L3.87109 3.81445L4.59277 3.99805Z" stroke="#666666" stroke-width="2"/>
  <path d="M10.3995 7.86914C11.638 8.18422 12.5489 9.31066 12.549 10.6455V21.291C12.549 21.5391 12.4509 21.7777 12.2755 21.9531C12.1001 22.1286 11.8615 22.2266 11.6134 22.2266H7.74231C7.49432 22.2266 7.2566 22.1284 7.08118 21.9531C6.90572 21.7777 6.80676 21.5391 6.80676 21.291V10.6455C6.80683 9.31072 7.71779 8.18428 8.95618 7.86914L9.67786 7.68555L10.3995 7.86914Z" stroke="#1447e6" stroke-width="2"/>
</svg>